<svg width="19" height="20" viewBox="0 0 19 20" fill="none" xmlns="http://www.w3.org/2000/svg">
<path d="M0.362726 6.46318C0.383842 5.27799 0.56332 4.11426 1.22848 3.09532C1.84085 2.15146 2.68022 1.51329 3.7413 1.14862C4.78127 0.794668 5.85291 0.794669 6.91928 0.789307C8.9781 0.789307 11.0369 0.789307 13.0958 0.810758C14.2519 0.821484 15.3604 1.06817 16.3371 1.73316C17.4404 2.47859 18.1108 3.54044 18.3378 4.85433C18.4698 5.63194 18.5332 6.431 18.5384 7.21934C18.549 9.47172 18.5226 11.7188 18.4909 13.9711C18.4751 14.9579 18.2586 15.9125 17.7466 16.7705C17.1289 17.8002 16.2526 18.4813 15.1176 18.8513C14.0882 19.1892 13.0271 19.1999 11.9713 19.1999C9.94945 19.1999 7.93285 19.1999 5.91098 19.1838C4.84989 19.1784 3.82049 18.9961 2.8861 18.4598C1.79334 17.8377 1.06483 16.9046 0.690023 15.6819C0.436629 14.856 0.38911 14.014 0.352157 13.1614C0.346878 13.0112 0.33104 8.18465 0.367994 6.45782L0.362726 6.46318ZM2.12592 14.4967C2.21566 15.3816 2.58519 16.1699 3.31897 16.7437C4.03692 17.3068 4.8763 17.4784 5.72623 17.4945C8.44493 17.5589 11.1689 17.6608 13.8823 17.4087C14.4947 17.3497 15.0543 17.1352 15.5452 16.7598C16.4849 16.0466 16.8122 15.0169 16.8386 13.9014C16.8914 11.8314 16.8808 9.75595 16.8703 7.6859C16.8703 6.94583 16.8333 6.2004 16.7541 5.46569C16.6697 4.66127 16.3424 3.95338 15.7353 3.39564C15.0648 2.78428 14.2466 2.54831 13.3755 2.52686C11.1636 2.48396 8.94642 2.45178 6.73451 2.46251C5.92154 2.46787 5.09802 2.47323 4.30616 2.73601C2.95473 3.17576 2.22094 4.21615 2.12064 5.50323C1.99922 7.12281 2.01506 13.4456 2.12064 14.486L2.12592 14.4967Z" fill="#D79B00"/>
<path d="M9.46365 5.26697C11.9923 5.24552 14.1462 7.36383 14.1356 10.0292C14.125 12.6838 11.9395 14.7699 9.42142 14.7484C6.84526 14.727 4.72307 12.5872 4.75474 9.95944C4.78642 7.32629 6.8822 5.23479 9.46365 5.26697ZM12.4674 10.0399C12.5202 8.41495 11.1424 6.9509 9.4531 6.9509C7.79548 6.9509 6.42821 8.3345 6.42821 9.97017C6.42821 11.7077 7.76379 13.0699 9.4742 13.0645C11.1054 13.0645 12.4621 11.6863 12.4674 10.0399Z" fill="#D79B00"/>
<path d="M14.3047 6.17876C13.6977 6.23775 13.212 5.68002 13.1961 5.09547C13.1803 4.49483 13.7135 3.96392 14.31 3.96928C14.9224 3.98 15.445 4.49483 15.4186 5.1062C15.3975 5.66393 14.9488 6.23775 14.2995 6.17876H14.3047Z" fill="#D79B00"/>
</svg>
