<svg width="16" height="22" viewBox="0 0 16 22" fill="none" xmlns="http://www.w3.org/2000/svg">
<path d="M12.5554 1.17449C10.7025 0.0482958 8.70173 -0.182318 6.60067 0.123364C2.46191 0.724 -0.246233 4.00069 0.0177185 8.23196C0.11802 9.83544 0.535063 11.1654 1.82315 12.2005C1.98152 12.3345 2.9423 12.6134 3.20097 11.4657C3.29072 11.0635 3.24848 10.7579 3.0426 10.3664C2.71002 9.73355 2.41968 9.01494 2.35105 8.30704C2.00263 4.76222 4.64215 2.04327 8.1791 2.23097C10.655 2.35968 12.4234 3.70574 12.9619 5.96349C13.4159 7.87802 13.1097 9.7121 12.1225 11.4068C11.6474 12.2219 10.9612 12.8279 10.032 13.08C8.20022 13.5733 6.90685 12.2916 7.45587 10.5916C7.52978 10.361 7.59841 10.125 7.65648 9.88908C7.90987 8.88624 8.22661 7.89947 8.39027 6.88053C8.59087 5.6149 7.71454 4.67641 6.55316 4.91773C6.0886 5.01426 5.59237 5.34677 5.27563 5.71681C4.48378 6.63921 4.38348 7.7922 4.66855 8.9184C4.86387 9.70137 4.84276 10.4146 4.62104 11.1654C4.4785 11.632 4.3782 12.1146 4.28318 12.5919C3.9506 14.2651 3.5969 15.9383 3.32239 17.6276C3.23793 18.1586 3.23264 18.8825 3.25376 19.4564L3.30655 21.2529C3.56523 21.0438 4.73189 19.3652 4.94833 18.9469C4.99584 18.8664 5.01168 18.8182 5.01168 18.8182C5.80353 17.2415 6.15196 15.5522 6.58484 13.8629C7.18665 14.6084 7.88875 15.0267 8.73868 15.1822C10.2326 15.4557 11.5788 15.0588 12.793 14.2062C14.6301 12.9137 15.5064 11.0314 15.8865 8.84869C16.4302 5.75434 15.1316 2.7297 12.5607 1.16375L12.5554 1.17449Z" fill="#D79B00"/>
</svg>
